<svg xmlns="http://www.w3.org/2000/svg" xmlns:xlink="http://www.w3.org/1999/xlink" version="1.1" x="0px" y="0px" viewBox="0 0 100 100" enable-background="new 0 0 100 100" xml:space="preserve"><g><path d="M50.6,39.5c-2.4,0-4.4,2-4.4,4.4c0,2.4,2,4.4,4.4,4.4c2.4,0,4.4-2,4.4-4.4C55.1,41.5,53.1,39.5,50.6,39.5z M50.6,47.1   c-1.7,0-3.1-1.4-3.1-3.1c0-1.7,1.4-3.1,3.1-3.1c1.7,0,3.1,1.4,3.1,3.1C53.8,45.7,52.4,47.1,50.6,47.1z"></path><path d="M93.9,63.2L93.9,63.2c-0.1-0.8-0.2-1.5-0.4-2.1l0.1-0.1c0.4-0.6,0.4-1.4,0.1-1.9l-0.5-0.7c-0.1-0.1-0.3-0.4-1.3-0.4   c-0.5-0.6-1.1-1.2-1.8-1.6l-0.1-0.6c-0.1-0.7-0.7-1.3-1.3-1.4l-0.9-0.1c-0.4,0-0.9,0.3-1.3,0.7c-0.5-0.1-1.1-0.1-1.6-0.1   c0,0,0,0,0,0c-3.7,0-6,1.6-6.9,4.7c-0.3,1.2-0.5,3.3,0.3,5.1c-5.4-2.4-15.8-7.2-19.6-11.5c1,0.4,2.1,0.7,2.8,1v0.2   c0,0.6,0.4,1.1,1,1.3l1.1,0.4c0.6,0.2,1.3,0,1.6-0.6l0.1-0.2c0.6,0.1,1.2,0.2,1.8,0.3l0.2,0.5c0.2,0.5,0.7,0.9,1.3,0.9   c0,0,0,0,0.1,0l1.2-0.1c0.6,0,1.2-0.5,1.3-1.1l0-0.1c0.7-0.1,1.4-0.2,2.2-0.4l0.4,0.4c0.4,0.4,1,0.6,1.6,0.4l1.1-0.5   c0.6-0.3,0.9-0.9,0.8-1.5l0-0.3c0.5-0.3,1.1-0.6,1.6-1c3.2-2.2,5-4.4,5.1-6.8c0.1-2.2-1.1-4.2-3.6-6.3c-0.6-0.5-0.8-1-0.7-1.4   c0.3-0.9,2.1-1.7,3.9-1.7c0.9,0,2.5,0.1,3.4,0.2c0.4,0,0.8-0.2,0.9-0.6c0.1-0.4,0-0.8-0.4-1c-2.2-1.2-4.5-1.6-6.6-1.2   c-0.3-0.3-0.9-0.4-1.3-0.3l-0.9,0.4c-0.5,0.2-0.8,0.7-0.8,1.2c-0.3,0.2-0.5,0.4-0.7,0.6l-0.1,0c-0.5-0.1-1.1,0.1-1.3,0.6L75,37.1   c-0.3,0.4-0.2,1,0.1,1.4c-0.2,0.5-0.3,1-0.3,1.5l-0.2,0.2c-0.4,0.4-0.4,1-0.2,1.4l0.5,0.8c0.3,0.5,0.9,0.7,1.4,0.6l0,0   c0.1,0.1,0.1,0.1,0.2,0.2c0.8,0.8,1.2,1.3,1,2.2c-0.3,1.3-1.4,3.1-8.1,2.9c-2.9-0.1-5.8-1.4-7.4-2.3c3.1-1.1,6.9-2.4,10.2-8.4   c2.4-4.3,2-8.2,1.3-10.7c-1-3.3-3.2-6.2-5.7-7.5c-2.8-1.5-5.6-2.2-8.4-2.2c0,0,0,0,0,0c-13,0-20.4,16.6-21.7,19.7   c-0.3,0-0.6-0.1-1-0.1c-1.2,0-2.2,0.3-2.8,0.8c-1.5,1.1-2.3,2.4-2.4,4c-0.1,0.6,0,1.2,0.2,1.8c-3.4,0.2-6.6-1.3-6.9-2.8   c-0.3-1.3,0.1-2.7,0.8-3.5c0.3-0.4,0.9-0.9,1.8-0.8c1.2,0,1.5,0.3,1.5,0.4c0,0.2-0.2,0.5-0.3,0.6c-0.2,0-0.3-0.1-0.4-0.2   c-0.3-0.3-0.8-0.4-1.2-0.2c-0.4,0.2-0.7,0.6-0.7,1c0,0.8,0.4,1.5,1.1,2c0.5,0.3,1.5,0.7,3-0.1c1.9-1,2.6-2.7,1.8-4.7   c-0.6-1.4-1.7-2.4-3.2-2.9c-0.1-0.5-0.6-0.9-1.1-0.9l-0.9-0.1c-0.5,0-1,0.3-1.2,0.7l0,0.1c-0.7,0.1-1.3,0.3-1.9,0.5l-0.2-0.2   c-0.5-0.3-1.1-0.3-1.5,0.1l-0.7,0.6c-0.4,0.3-0.5,0.9-0.3,1.4c-0.4,0.4-0.7,0.9-1.1,1.3c-0.5,0-1,0.2-1.2,0.7l-0.4,0.8   c-0.2,0.5-0.1,1.1,0.3,1.4l0.1,0.1c-0.5,2.5,0,6,4.9,9.2c0.4,0.3,0.8,0.5,1.3,0.8l-0.1,0.5c-0.1,0.6,0.2,1.2,0.8,1.5l2,0.7   c-0.5,0.8-1,1.6-1.4,2.3c-1.1,1.9-2.2,3.8-4.7,6.5c-1.7,1.9-3.8,2.9-5.8,2.9c-1.5,0-2.8-0.5-3.7-1.5c-0.9-1-1.4-2.5-1.3-4.1   c0.2-2.7,2.3-4,4-4.3c1.3-0.2,2.4,0.1,2.9,0.9c0.4,0.6,0.4,1.4,0,2.2c0,0,0,0,0,0.1c0,0-0.6,1.6-1.8,1.7c-0.4,0-0.5-0.1-0.6-0.2   c-0.1-0.2,0-0.6,0.1-0.6c0,0,0.1,0,0.1,0c0.2,0.1,0.4,0.1,0.6,0.1c0.2,0,0.4,0,0.5-0.1c0.9-0.3,1-1.2,1-1.6c-0.2-1-0.9-1.7-2.1-1.7   c-0.6,0-1.2,0.2-1.8,0.5c-0.8,0.4-1.4,1.2-1.7,2.1c-0.3,1.1-0.1,2.2,0.5,3.1c0.7,1,1.9,1.6,3.3,1.6c2.2,0,5.1-1.5,6.2-4.9   c0.6-1.7,0.2-4-1-5.7c-1.3-1.9-3.4-2.9-5.8-2.9c0,0,0,0,0,0c-1.2,0-2.5,0.2-3.8,0.7c-4.9,1.8-7.4,6.8-6.3,12.7   c0.9,5.4,4.8,10.8,10.3,10.8c0.5,0,1,0,1.5-0.1c1.9-0.3,3.7-1.2,5.6-2.5c0.5,0.4,1.3,0.3,1.9-0.1l0.9-0.7c0.5-0.4,0.7-1.1,0.5-1.7   l-0.1-0.2c0.4-0.4,0.8-0.8,1.2-1.3c0.6,0.3,1.4,0.1,1.9-0.4l0.7-0.9c0.4-0.5,0.5-1.2,0.1-1.7l0-0.1c0.4-0.5,0.8-1,1.2-1.4   c0.6,0.2,1.3,0,1.7-0.5l0.7-0.9c0.4-0.5,0.4-1.2,0.1-1.7c1.1-1.2,1.6-1.5,1.9-1.5c0.2,0,0.3,0.3,0.4,0.5c0.1,0.3,0.3,0.7,0.5,1.1   c-0.3,0.5-0.4,1.2-0.1,1.7l0.6,1c0.3,0.5,0.8,0.7,1.3,0.7c0.3,0.4,0.5,0.9,0.8,1.4c-0.3,0.5-0.3,1.1,0,1.6l0.6,1   c0.3,0.5,0.9,0.8,1.5,0.7c0.3,0.4,0.6,0.9,0.9,1.4c-0.3,0.5-0.3,1.2,0.1,1.7l0.7,0.9c0.3,0.4,0.9,0.6,1.4,0.6   c5.8,8.1,10.6,12.1,14.3,12.1c0.1,0,0.1,0,0.2,0c4.4-0.2,6.4-5.1,6.3-9.6c-0.1-3.5-1.5-7.3-4.5-7.3c-0.3,0-0.7,0.1-1,0.2   c-3.1,0.9-3.7,4.2-3.6,5.8c0,0,0,0.1,0,0.1c0,0,0,0,0,0c0.3,1.1,1,3,2.1,3.1c0.1,0,0.1,0,0.2,0c0.4,0,0.7-0.2,1.1-0.6   c0,0.1,0,0.3-0.1,0.4c-0.1,0.5-0.3,1.6-0.8,1.6c-3.1,0-11.8-16.5-12.3-20.2c0.1,0,0.4,0.1,0.7,0.2l0,0.1c-0.2,0.8,0.2,1.6,0.9,1.8   l1.1,0.4c0.6,0.2,1.3,0.1,1.7-0.4l0.2-0.2c0.3,0.1,0.5,0.3,0.8,0.4L51,58.9c-0.2,0.8,0.2,1.6,0.9,1.8l1.1,0.4   c0.6,0.2,1.3,0.1,1.7-0.4l0.1-0.1c0.4,0.3,0.9,0.5,1.4,0.8l-0.1,0.2c-0.2,0.8,0.2,1.6,0.9,1.8l1.1,0.4c0.6,0.2,1.3,0.1,1.7-0.4   l0.1-0.1c0.5,0.3,0.9,0.5,1.4,0.8l0,0.2c-0.2,0.8,0.2,1.6,0.9,1.8l1.1,0.4c0.6,0.2,1.3,0.1,1.7-0.4l0-0.1c3.3,1.8,6.1,3.1,8.5,4.2   c4,1.8,7.9,2.7,11.1,2.7c5,0,8.2-2.3,9-6.6c0.7-0.2,1.2-0.8,1.2-1.4l0.1-0.9C95,63.8,94.6,63.3,93.9,63.2z M78.8,45.7   c0.3-1.7-0.6-2.6-1.4-3.4c-0.1-0.1-0.3-0.3-0.4-0.4c-0.2-0.2-0.4-0.2-0.6-0.2L76,41.7L75.6,41l0.3-0.4c0.1-0.1,0.2-0.3,0.2-0.5   c0-0.4,0.1-1,0.3-1.5c0.1-0.2,0.1-0.5-0.1-0.7l-0.1-0.1l0.4-0.7l0.4,0.1c0.2,0,0.4,0,0.6-0.2c0.3-0.3,0.7-0.6,1.1-0.9   c0.2-0.1,0.3-0.4,0.3-0.6l0-0.2l0.8-0.3l0.1,0.2c0.2,0.2,0.4,0.3,0.7,0.2c1-0.3,2.1-0.3,3.3,0c-0.2,0-0.3,0-0.5,0   c-2.1,0-4.5,0.9-5.1,2.6c-0.2,0.6-0.3,1.7,1.1,2.9c2.2,1.8,3.2,3.6,3.1,5.3c-0.1,1.9-1.6,3.9-4.5,5.8c-0.6,0.4-1.3,0.8-1.9,1.1   c-0.3,0.1-0.4,0.4-0.4,0.7l0.1,0.8c0,0,0,0.1-0.1,0.1l-1.1,0.5c0,0-0.1,0-0.1,0L73.9,54c-0.2-0.2-0.4-0.3-0.7-0.2   c-0.9,0.2-1.9,0.4-2.8,0.5c-0.3,0-0.5,0.2-0.6,0.5l-0.1,0.6c0,0,0,0.1-0.1,0.1l-1.2,0.1c0,0-0.1,0-0.1-0.1l-0.3-0.8   c-0.1-0.2-0.3-0.4-0.5-0.4c-0.8-0.1-1.6-0.2-2.5-0.4c-0.3-0.1-0.5,0.1-0.7,0.3L64,54.7c0,0-0.1,0-0.1,0l-1.1-0.4c0,0-0.1,0-0.1-0.1   v-0.6c0-0.3-0.2-0.5-0.4-0.6c-1.2-0.4-3.6-1.2-4.8-1.7c-0.3-0.7-0.3-1.3-0.1-1.9c0.6-1.6,1.6-2.3,3.1-2.9c1.4,0.9,5.1,3,9,3.1   C75.3,49.7,78.3,48.5,78.8,45.7z M26.2,49.5C26.2,49.5,26.2,49.4,26.2,49.5l0.1-1.1c0-0.3-0.1-0.5-0.3-0.7   c-0.5-0.3-1.1-0.6-1.6-0.9c-3.5-2.4-5-5.2-4.2-8.2c0.1-0.2,0-0.5-0.2-0.6l-0.3-0.3l0.4-0.8l0.2,0c0.3,0.1,0.5-0.1,0.7-0.3   c0.4-0.7,0.9-1.3,1.4-1.8c0.2-0.2,0.3-0.5,0.1-0.7l-0.1-0.3l0.6-0.6l0.5,0.3c0.2,0.1,0.4,0.2,0.6,0.1c0.7-0.3,1.5-0.5,2.3-0.6   c0.2,0,0.4-0.2,0.5-0.4l0.2-0.4l0.8,0.1l0,0.3c0,0.3,0.2,0.5,0.5,0.5c1.3,0.3,2.2,1,2.7,2.2c0.5,1.4,0.1,2.4-1.2,3   c-0.7,0.4-1.3,0.4-1.8,0.1c-0.1-0.1-0.3-0.2-0.3-0.3c0.2,0.1,0.5,0.2,0.9,0.2c0.7,0,1.5-1,1.5-1.8c0-0.6-0.3-1.7-2.8-1.8   c-1.1,0-2.1,0.4-2.9,1.3c-1,1.2-1.4,2.9-1.1,4.6c0.5,2.4,4.6,4.1,8.6,3.8c0.2,0.5,0.5,0.9,0.7,1.2c-2,1.8-3.3,3.2-4.3,4.6   L26.2,49.5z M57.9,73.7c-0.2-0.2-0.6-1-0.9-1.8c0.6-0.8,1.5-1.6,1.9-1.6c0,0,0.2,0.2,0.3,1.1C58.8,72.5,58.2,73.5,57.9,73.7z    M93.6,65.2c0,0-0.1,0.2-0.3,0.2L93,65.5c-0.3,0.1-0.4,0.3-0.5,0.5l0,0.2c0,0.1,0,0.1,0,0.2c-0.7,3.7-3.3,5.5-7.8,5.5   c-3,0-6.8-0.9-10.6-2.6c-2.5-1.1-5.4-2.5-8.8-4.4c-0.3-0.1-0.6-0.1-0.8,0.1l-0.4,0.4c-0.1,0.1-0.2,0.1-0.3,0.1l-1.1-0.4   c-0.1,0-0.2-0.2-0.1-0.3l0.2-0.7c0.1-0.3-0.1-0.6-0.3-0.7c-0.8-0.4-1.6-0.9-2.3-1.3c-0.3-0.1-0.6-0.1-0.8,0.1l-0.4,0.4   c-0.1,0.1-0.2,0.1-0.3,0.1l-1.1-0.4c-0.1,0-0.2-0.2-0.1-0.3l0.2-0.7c0.1-0.3,0-0.6-0.3-0.7c-0.8-0.4-1.5-0.9-2.3-1.3   c-0.3-0.1-0.6-0.1-0.8,0.1l-0.4,0.5C53.7,60,53.6,60,53.5,60l-1.1-0.4c-0.1,0-0.2-0.2-0.1-0.3l0.2-0.8c0.1-0.3-0.1-0.6-0.3-0.7   c-0.6-0.3-1.2-0.6-1.7-0.9c-0.3-0.1-0.6-0.1-0.8,0.1l-0.5,0.6c-0.1,0.1-0.2,0.1-0.3,0.1l-1.1-0.4c-0.1,0-0.2-0.2-0.1-0.3l0.2-0.7   c0.1-0.3-0.1-0.6-0.4-0.8c-0.9-0.3-1.5-0.5-1.9-0.5c-0.8,0-1.1,0.5-1.1,1c0,3.5,9.4,21.8,13.7,21.8c0.8,0,1.8-0.5,2.1-2.7   c0.6-3.9,0.1-5-0.3-5.5c-0.3-0.3-0.6-0.5-1-0.5c-0.6,0-1.1,0.3-1.7,0.8c0.3-1,1-2.1,2.4-2.5c0.2-0.1,0.5-0.1,0.7-0.1   c2,0,3.1,3,3.2,6.1c0.1,3.9-1.4,8.1-5,8.3c-3.2,0.1-8.1-4.1-13.6-11.9c-0.1-0.2-0.3-0.3-0.5-0.3c-0.1,0-0.1,0-0.2,0L44,69.4   c-0.1,0-0.2,0-0.3-0.1L43,68.4c-0.1-0.1-0.1-0.2,0-0.3l0.1-0.1c0.2-0.2,0.3-0.6,0.1-0.8c-0.5-0.7-0.9-1.4-1.4-2.1   c-0.1-0.2-0.4-0.3-0.7-0.3l-0.4,0.1c-0.1,0-0.2,0-0.2-0.1l-0.6-1c-0.1-0.1,0-0.2,0.1-0.3l0,0c0.3-0.2,0.3-0.6,0.2-0.8   c-0.5-0.8-0.9-1.5-1.3-2.2c-0.1-0.2-0.4-0.4-0.7-0.3l-0.2,0c-0.1,0-0.2,0-0.2-0.1l-0.6-1c-0.1-0.1,0-0.2,0.1-0.3l0.1-0.1   c0.2-0.2,0.3-0.5,0.2-0.8c-0.3-0.6-0.6-1.1-0.7-1.5c-0.5-1-1.1-1.2-1.6-1.2c-0.8,0-1.8,0.7-3.2,2.3c-0.2,0.2-0.2,0.5-0.1,0.8   l0.2,0.4c0.1,0.1,0,0.2,0,0.3l-0.7,0.9c-0.1,0.1-0.2,0.1-0.3,0.1L31,59.5c-0.3-0.2-0.6-0.1-0.8,0.2l-0.1,0.1   c-0.5,0.7-1.1,1.4-1.7,2.1c-0.2,0.2-0.2,0.5-0.1,0.7l0.3,0.5c0.1,0.1,0,0.2,0,0.3l-0.7,0.9c-0.1,0.1-0.2,0.2-0.3,0.1l-0.3-0.2   C27,64,26.6,64,26.4,64.2c-0.6,0.7-1.2,1.3-1.8,1.9c-0.2,0.2-0.2,0.4-0.2,0.7l0.2,0.6c0,0.1,0,0.2-0.1,0.3l-0.9,0.7   c-0.1,0.1-0.2,0.1-0.3,0l-0.2-0.2c-0.2-0.2-0.6-0.2-0.8-0.1c-1.9,1.4-3.7,2.2-5.4,2.6c-0.4,0.1-0.9,0.1-1.3,0.1   c-4.8,0-8.1-4.9-9-9.7c-0.7-4.2,0.3-9.4,5.5-11.3c1.2-0.4,2.3-0.6,3.3-0.6c0,0,0,0,0,0c2,0,3.7,0.8,4.8,2.3c1,1.4,1.3,3.1,0.9,4.5   c-0.9,2.7-3.2,4-5,4c-1,0-1.7-0.4-2.2-1c-0.4-0.6-0.5-1.3-0.3-2.1c0.2-0.6,0.5-1.1,1-1.3c0.4-0.2,0.8-0.3,1.2-0.3   c0.7,0,0.8,0.4,0.8,0.6c0,0.1-0.1,0.2-0.1,0.2c-0.1,0-0.1,0-0.3,0c-0.1-0.1-0.3-0.1-0.6-0.1c-0.2,0-0.5,0.1-0.7,0.2   c-0.6,0.4-0.9,1.3-0.6,2c0.2,0.8,0.9,1.2,1.7,1.2c0.1,0,0.1,0,0.2,0c1.9-0.1,2.8-2.2,2.9-2.5c0.6-1.2,0.5-2.4-0.1-3.4   c-0.8-1.3-2.4-1.8-4.2-1.5c-2.3,0.4-4.8,2.3-5,5.5c-0.2,2,0.4,3.8,1.6,5.1c1.2,1.3,2.8,2,4.6,2c2.4,0,4.8-1.2,6.7-3.3   c2.5-2.7,3.7-4.8,4.8-6.7c1.4-2.4,2.7-4.7,6.7-8.1c0.1-0.1,0.2-0.3,0.2-0.5c0-0.2,0-0.3-0.2-0.5c0,0-1.6-1.7-1.4-3.7   c0.1-1.1,0.8-2.1,1.9-3c0.4-0.3,1.1-0.5,2-0.5c0.7,0,1.3,0.1,1.3,0.1c0.3,0.1,0.6-0.1,0.7-0.4c0.1-0.2,7.5-19.3,20.7-19.3   c2.5,0,5.1,0.7,7.8,2.1c1.7,0.9,4,3.2,5.1,6.7c0.7,2.3,1,5.8-1.2,9.7c-3.1,5.6-6.7,6.8-9.6,7.8c-2.4,0.8-4.4,1.5-5.4,4.2   c-0.4,1-0.3,2,0.2,3.1c0,0,0,0,0,0C58.6,56.9,68.8,62,79,66.4c2.3,1,4.2,1.5,5.7,1.5c2.7,0,3.7-1.5,4.3-2.7   c0.9-1.8,0.8-3.7-0.1-5.2c-0.9-1.5-2.5-2.4-4.2-2.4c-1.5,0-2.8,0.7-3.8,2c-0.5,0.6-0.6,2-0.1,3c0.3,0.6,1.1,1.6,3.1,1.6l0.1,0   c0.6,0,1.5-0.3,2-0.9c0.4-0.4,0.5-0.8,0.5-1.3c-0.1-1.1-1-1.7-1.9-1.7c-0.6,0-1.2,0.3-1.4,0.7c-0.1,0.2-0.3,0.7,0.1,1.3   c0.2,0.3,0.6,0.4,0.9,0.2c0.3-0.2,0.4-0.6,0.2-0.9c0,0,0,0,0,0c0,0,0.1,0,0.2,0c0.1,0,0.6,0,0.6,0.5c0,0.1,0,0.2-0.1,0.4   c-0.3,0.3-0.8,0.5-1,0.5l-0.1,0c-1,0-1.6-0.3-1.9-0.9c-0.3-0.7-0.2-1.5,0-1.7c0.9-1.2,2-1.5,2.8-1.5c1.2,0,2.5,0.7,3.1,1.8   c0.7,1.2,0.7,2.5,0,3.9c-0.5,1-1.3,2-3.2,2c-1,0-2.4-0.3-3.9-0.9c-2.3-1.4-2-4.7-1.7-5.9c0.7-2.6,2.5-3.8,5.7-3.8c0,0,0,0,0,0   c0.6,0,1.2,0.1,1.7,0.2c0.2,0,0.5,0,0.6-0.2c0.2-0.3,0.5-0.5,0.6-0.5l0.7,0.1c0,0,0.2,0.1,0.2,0.3l0.2,0.9c0,0.2,0.1,0.3,0.3,0.4   c0.7,0.4,1.4,1,1.9,1.7c0.1,0.2,0.4,0.2,0.6,0.2c0.3,0,0.5,0,0.6,0l0.4,0.6c0,0,0,0.2-0.1,0.4l-0.3,0.4c-0.1,0.2-0.1,0.4-0.1,0.6   c0.3,0.8,0.4,1.7,0.4,2.6c0,0.3,0.2,0.6,0.6,0.6l0.5,0.1L93.6,65.2z"></path><path d="M48.4,43c0,0-0.5,2.8,2.2,2.8c2.7,0,2.2-2.8,2.2-2.8C50.5,44.5,48.4,43,48.4,43z"></path></g></svg>